# xmcd CD database file
#
# Track frame offsets:
#	150
#	24062
#	54560
#	72213
#	99844
#	134378
#	162868
#	193250
#
# Disc length: 2734 seconds
#
# Revision: 1
# Processed by: cddbd v1.5.2PL0 Copyright (c) Steve Scherf et al.
# Submitted via: CDex 1.82
#
DISCID=610aac08
DTITLE=Lambchop - This (Is What I Wanted To Tell You)
DYEAR=2019
DGENRE=Blues
TTITLE0=The New Isn't So You Anymore
TTITLE1=Crosswords Or What This Says About You
TTITLE2=Everything For You
TTITLE3=The Lasting Last Of You
TTITLE4=The Air Is Heavy And I Should Be Listening To You
TTITLE5=The December-ish You
TTITLE6=This Is What I Wanted To Tell You
TTITLE7=Flower
EXTD=YEAR: 2019
EXTT0=
EXTT1=
EXTT2=
EXTT3=
EXTT4=
EXTT5=
EXTT6=
EXTT7=
PLAYORDER=
